<svg width="17" height="15" viewBox="0 0 17 15" fill="none" xmlns="http://www.w3.org/2000/svg">
<path fill-rule="evenodd" clip-rule="evenodd" d="M0.25 7.50052C0.25 7.08631 0.585786 6.75052 1 6.75052H16C16.4142 6.75052 16.75 7.08631 16.75 7.50052C16.75 7.91474 16.4142 8.25052 16 8.25052H1C0.585786 8.25052 0.25 7.91474 0.25 7.50052Z" fill="#EDF2EE"/>
<path fill-rule="evenodd" clip-rule="evenodd" d="M9.41848 0.946338C9.71074 0.652815 10.1856 0.651792 10.4791 0.944054L16.5291 6.96805C16.6705 7.10879 16.7499 7.30003 16.75 7.49949C16.75 7.69896 16.6705 7.8902 16.5292 8.03095L10.4792 14.056C10.1857 14.3482 9.71081 14.3473 9.41852 14.0538C9.12624 13.7603 9.12722 13.2854 9.42072 12.9931L14.937 7.49957L9.42076 2.007C9.12724 1.71473 9.12622 1.23986 9.41848 0.946338Z" fill="#EDF2EE"/>
</svg>
